Coordinates
version=1
nRows=32
nColumns=12
inDegrees=yes

Units are S.I. units (second, meters, Newtons, ...)
Angles are in degrees

endheader
time	SC_y	SC_z	SC_x	AC_y	AC_z	AC_x	GH_y	GH_z	GH_yy	EL_x	PS_y
       0.0              -37.54           11.4          56.46          61.18         -2.319          6.971         -129.0         -2.202          117.2          129.7          109.4
    0.0324              -37.54           11.4          56.46          61.18         -2.319          6.969         -129.0         -2.197          117.2          129.7          109.4
   0.06479              -37.55           11.4          56.45          61.19         -2.319          6.968         -128.9         -2.193          117.2          129.7          109.4
   0.09719              -37.55          11.41          56.45          61.19         -2.318          6.966         -128.9         -2.187          117.2          129.7          109.4
    0.1296              -37.55          11.41          56.44          61.19         -2.318          6.965         -128.8         -2.182          117.1          129.7          109.4
     0.162              -37.56          11.42          56.43          61.19         -2.318          6.963         -128.8         -2.176          117.1          129.7          109.4
    0.1944              -37.56          11.42          56.42          61.19         -2.317          6.961         -128.7         -2.169          117.1          129.7          109.4
    0.2268              -37.57          11.43          56.42          61.19         -2.317          6.959         -128.7         -2.162          117.1          129.6          109.4
    0.2592              -37.57          11.43          56.41          61.19         -2.317          6.957         -128.6         -2.155          117.1          129.6          109.4
    0.2916              -37.58          11.44           56.4          61.19         -2.316          6.954         -128.5         -2.147          117.0          129.6          109.4
     0.324              -37.58          11.44          56.39          61.19         -2.316          6.952         -128.5         -2.138          117.0          129.6          109.4
    0.3564              -37.59          11.45          56.38          61.19         -2.315          6.949         -128.4         -2.129          117.0          129.6          109.4
    0.3888              -37.59          11.46          56.37          61.19         -2.314          6.946         -128.3         -2.119          116.9          129.6          109.4
    0.4212               -37.6          11.47          56.36          61.19         -2.314          6.943         -128.2         -2.109          116.9          129.5          109.5
    0.4535              -37.61          11.48          56.34           61.2         -2.313           6.94         -128.1         -2.097          116.9          129.5          109.5
    0.4859              -37.62          11.49          56.33           61.2         -2.312          6.936         -128.0         -2.085          116.8          129.5          109.5
    0.5183              -37.63           11.5          56.32           61.2         -2.312          6.932         -127.9         -2.071          116.8          129.5          109.5
    0.5507              -37.64          11.51           56.3           61.2         -2.311          6.927         -127.8         -2.056          116.7          129.5          109.5
    0.5831              -37.65          11.52          56.28           61.2          -2.31          6.923         -127.6          -2.04          116.7          129.4          109.5
    0.6155              -37.66          11.53          56.26           61.2         -2.309          6.917         -127.5         -2.023          116.6          129.4          109.5
    0.6479              -37.67          11.55          56.24          61.21         -2.307          6.912         -127.3         -2.003          116.6          129.4          109.5
    0.6803              -37.68          11.56          56.21          61.21         -2.306          6.905         -127.1         -1.982          116.5          129.3          109.6
    0.7127               -37.7          11.58          56.19          61.21         -2.305          6.898         -126.9         -1.958          116.4          129.3          109.6
    0.7451              -37.72           11.6          56.16          61.21         -2.303           6.89         -126.7         -1.932          116.3          129.2          109.6
    0.7775              -37.73          11.63          56.13          61.22         -2.301          6.882         -126.5         -1.903          116.2          129.2          109.6
    0.8099              -37.76          11.65          56.09          61.22           -2.3          6.872         -126.2         -1.871          116.1          129.1          109.7
    0.8423              -37.78          11.68          56.05          61.23         -2.297          6.861         -125.9         -1.834          116.0          129.0          109.7
    0.8747              -37.81          11.71           56.0          61.23         -2.295          6.849         -125.5         -1.793          115.9          129.0          109.7
    0.9071              -37.84          11.75          55.95          61.24         -2.292          6.835         -125.1         -1.747          115.7          128.9          109.8
    0.9395              -37.87          11.79          55.89          61.24         -2.289           6.82         -124.7         -1.695          115.5          128.8          109.8
    0.9719              -37.91          11.83          55.83          61.25         -2.285          6.802         -124.2         -1.635          115.3          128.7          109.9
     1.004              -37.95          11.88          55.75          61.26         -2.281          6.782         -123.6         -1.566          115.1          128.6          109.9
